HIERARCHY
ROOT hips
{
  OFFSET 0 10.074487846421558 1.314567655973056
  CHANNELS 6 Xposition Yposition Zposition Yrotation Xrotation Zrotation
  JOINT spine
  {
    OFFSET -7.042773748992335e-31 0.5690686926897363 0
    CHANNELS 3 Yrotation Xrotation Zrotation
    JOINT chest
    {
      OFFSET 0 1.2435964857087873 0
      CHANNELS 3 Yrotation Xrotation Zrotation
      JOINT upperChest
      {
        OFFSET 0 1.194994586872362 0
        CHANNELS 3 Yrotation Xrotation Zrotation
        JOINT neck
        {
          OFFSET 0 1.515103653293861 0
          CHANNELS 3 Yrotation Xrotation Zrotation
          JOINT head
          {
            OFFSET 0 0.8111851616465653 0
            CHANNELS 3 Yrotation Xrotation Zrotation
            JOINT leftEye
            {
              OFFSET 0.27141371691966987 0.7490044407698551 0.18219031050045686
              CHANNELS 3 Yrotation Xrotation Zrotation
              End Site
              {
                OFFSET 0.27141371691966987 0.7490044407698551 0.18219031050045686
              }
            }
            JOINT rightEye
            {
              OFFSET -0.2714136877644943 0.7490044019380786 0.18219040411850668
              CHANNELS 3 Yrotation Xrotation Zrotation
              End Site
              {
                OFFSET -0.2714136877644943 0.7490044019380786 0.18219040411850668
              }
            }
          }
        }
        JOINT leftShoulder
        {
          OFFSET 0.4137993136083964 1.1593397335613034 0
          CHANNELS 3 Yrotation Xrotation Zrotation
          JOINT leftUpperArm
          {
            OFFSET 1.0096991868951026 0 0
            CHANNELS 3 Yrotation Xrotation Zrotation
            JOINT leftLowerArm
            {
              OFFSET 2.418380967671622 0 0
              CHANNELS 3 Yrotation Xrotation Zrotation
              JOINT leftHand
              {
                OFFSET 2.361538296260114 0 0
                CHANNELS 3 Yrotation Xrotation Zrotation
                JOINT leftIndexProximal
                {
                  OFFSET 0.7243699271447109 0.08118285989887508 0.2022042461579805
                  CHANNELS 3 Yrotation Xrotation Zrotation
                  JOINT leftIndexIntermediate
                  {
                    OFFSET 0.36553107045252053 -0.010567764853200323 -0.014102670024158437
                    CHANNELS 3 Yrotation Xrotation Zrotation
                    JOINT leftIndexDistal
                    {
                      OFFSET 0.22505120770060527 -0.007821041598631284 -0.007511611613336286
                      CHANNELS 3 Yrotation Xrotation Zrotation
                      End Site
                      {
                        OFFSET 0.22505120770060527 -0.007821041598631284 -0.007511611613336286
                      }
                    }
                  }
                }
                JOINT leftLittleProximal
                {
                  OFFSET 0.6721063881632002 0.08118279568569564 -0.3209324945517917
                  CHANNELS 3 Yrotation Xrotation Zrotation
                  JOINT leftLittleIntermediate
                  {
                    OFFSET 0.34587329423120616 5.3042709780015684e-8 -5.929537746918179e-8
                    CHANNELS 3 Yrotation Xrotation Zrotation
                    JOINT leftLittleDistal
                    {
                      OFFSET 0.1992782500022232 0.0030983716482184676 0.0038310952896712935
                      CHANNELS 3 Yrotation Xrotation Zrotation
                      End Site
                      {
                        OFFSET 0.1992782500022232 0.0030983716482184676 0.0038310952896712935
                      }
                    }
                  }
                }
                JOINT leftMiddleProximal
                {
                  OFFSET 0.7301229696860206 0.08118412848995638 0.022516891543707507
                  CHANNELS 3 Yrotation Xrotation Zrotation
                  JOINT leftMiddleIntermediate
                  {
                    OFFSET 0.4076277831942017 -0.000001240188283180288 -1.6203245635504349e-7
                    CHANNELS 3 Yrotation Xrotation Zrotation
                    JOINT leftMiddleDistal
                    {
                      OFFSET 0.2514739255593972 0.0000013850839168938478 -1.8644847207816007e-8
                      CHANNELS 3 Yrotation Xrotation Zrotation
                      End Site
                      {
                        OFFSET 0.2514739255593972 0.0000013850839168938478 -1.8644847207816007e-8
                      }
                    }
                  }
                }
                JOINT leftRingProximal
                {
                  OFFSET 0.7218060861525873 0.08118280646416753 -0.1494689818508163
                  CHANNELS 3 Yrotation Xrotation Zrotation
                  JOINT leftRingIntermediate
                  {
                    OFFSET 0.3781267508900358 0.000001373626195677602 -1.4143108284514483e-7
                    CHANNELS 3 Yrotation Xrotation Zrotation
                    JOINT leftRingDistal
                    {
                      OFFSET 0.21814333268795483 -0.0027137626495670197 -0.004991775417842292
                      CHANNELS 3 Yrotation Xrotation Zrotation
                      End Site
                      {
                        OFFSET 0.21814333268795483 -0.0027137626495670197 -0.004991775417842292
                      }
                    }
                  }
                }
                JOINT leftThumbProximal
                {
                  OFFSET 0.10743676110519984 -0.16423092885053192 -0.07708859146227388
                  CHANNELS 3 Yrotation Xrotation Zrotation
                  JOINT leftThumbIntermediate
                  {
                    OFFSET 0.40350402100066307 -0.01735099334274981 0.315629965828783
                    CHANNELS 3 Yrotation Xrotation Zrotation
                    JOINT leftThumbDistal
                    {
                      OFFSET 0.2320014489535681 -0.01842351809041043 0.21271298411519196
                      CHANNELS 3 Yrotation Xrotation Zrotation
                      End Site
                      {
                        OFFSET 0.2320014489535681 -0.01842351809041043 0.21271298411519196
                      }
                    }
                  }
                }
              }
            }
          }
        }
        JOINT rightShoulder
        {
          OFFSET -0.41379931360839656 1.1593397335613034 0
          CHANNELS 3 Yrotation Xrotation Zrotation
          JOINT rightUpperArm
          {
            OFFSET -1.0096991868951024 0 0
            CHANNELS 3 Yrotation Xrotation Zrotation
            JOINT rightLowerArm
            {
              OFFSET -2.4183809676716232 0 0
              CHANNELS 3 Yrotation Xrotation Zrotation
              JOINT rightHand
              {
                OFFSET -2.3615382962601132 0 0
                CHANNELS 3 Yrotation Xrotation Zrotation
                JOINT rightIndexProximal
                {
                  OFFSET -0.7243699271447109 0.08118285989887508 0.2022042461579805
                  CHANNELS 3 Yrotation Xrotation Zrotation
                  JOINT rightIndexIntermediate
                  {
                    OFFSET -0.36553107045252053 -0.010567764853200323 -0.014102670024158437
                    CHANNELS 3 Yrotation Xrotation Zrotation
                    JOINT rightIndexDistal
                    {
                      OFFSET -0.22505120770060527 -0.007821041598631284 -0.007511611613336286
                      CHANNELS 3 Yrotation Xrotation Zrotation
                      End Site
                      {
                        OFFSET -0.22505120770060527 -0.007821041598631284 -0.007511611613336286
                      }
                    }
                  }
                }
                JOINT rightLittleProximal
                {
                  OFFSET -0.6721063881632002 0.08118279568569564 -0.3209324945517917
                  CHANNELS 3 Yrotation Xrotation Zrotation
                  JOINT rightLittleIntermediate
                  {
                    OFFSET -0.34587329423120616 5.3042709780015684e-8 -5.929537746918179e-8
                    CHANNELS 3 Yrotation Xrotation Zrotation
                    JOINT rightLittleDistal
                    {
                      OFFSET -0.1992782500022232 0.0030983716482184676 0.0038310952896712935
                      CHANNELS 3 Yrotation Xrotation Zrotation
                      End Site
                      {
                        OFFSET -0.1992782500022232 0.0030983716482184676 0.0038310952896712935
                      }
                    }
                  }
                }
                JOINT rightMiddleProximal
                {
                  OFFSET -0.7301229696860206 0.08118412848995638 0.022516891543707507
                  CHANNELS 3 Yrotation Xrotation Zrotation
                  JOINT rightMiddleIntermediate
                  {
                    OFFSET -0.4076277831942017 -0.000001240188283180288 -1.6203245635504349e-7
                    CHANNELS 3 Yrotation Xrotation Zrotation
                    JOINT rightMiddleDistal
                    {
                      OFFSET -0.2514739255593972 0.0000013850839168938478 -1.8644847207816007e-8
                      CHANNELS 3 Yrotation Xrotation Zrotation
                      End Site
                      {
                        OFFSET -0.2514739255593972 0.0000013850839168938478 -1.8644847207816007e-8
                      }
                    }
                  }
                }
                JOINT rightRingProximal
                {
                  OFFSET -0.7218060861525873 0.08118280646416753 -0.1494689818508163
                  CHANNELS 3 Yrotation Xrotation Zrotation
                  JOINT rightRingIntermediate
                  {
                    OFFSET -0.3781267508900358 0.000001373626195677602 -1.4143108284514483e-7
                    CHANNELS 3 Yrotation Xrotation Zrotation
                    JOINT rightRingDistal
                    {
                      OFFSET -0.21814333268795483 -0.0027137626495670197 -0.004991775417842292
                      CHANNELS 3 Yrotation Xrotation Zrotation
                      End Site
                      {
                        OFFSET -0.21814333268795483 -0.0027137626495670197 -0.004991775417842292
                      }
                    }
                  }
                }
                JOINT rightThumbProximal
                {
                  OFFSET -0.10743676110519984 -0.16423092885053192 -0.07708859146227388
                  CHANNELS 3 Yrotation Xrotation Zrotation
                  JOINT rightThumbIntermediate
                  {
                    OFFSET -0.40350402100066307 -0.01735099334274981 0.315629965828783
                    CHANNELS 3 Yrotation Xrotation Zrotation
                    JOINT rightThumbDistal
                    {
                      OFFSET -0.2320014489535681 -0.01842351809041043 0.21271298411519196
                      CHANNELS 3 Yrotation Xrotation Zrotation
                      End Site
                      {
                        OFFSET -0.2320014489535681 -0.01842351809041043 0.21271298411519196
                      }
                    }
                  }
                }
              }
            }
          }
        }
      }
    }
  }
  JOINT leftUpperLeg
  {
    OFFSET 0.8487163290887698 -0.43932186100277326 0
    CHANNELS 3 Yrotation Xrotation Zrotation
    JOINT leftLowerLeg
    {
      OFFSET 0 -3.882816707004296 0
      CHANNELS 3 Yrotation Xrotation Zrotation
      JOINT leftFoot
      {
        OFFSET 0 -4.570431027442807 0.004629272230691511
        CHANNELS 3 Yrotation Xrotation Zrotation
        JOINT leftToes
        {
          OFFSET 0 -0.698875637876343 1.214565366696912
          CHANNELS 3 Yrotation Xrotation Zrotation
          End Site
          {
            OFFSET 0 -0.698875637876343 1.214565366696912
          }
        }
      }
    }
  }
  JOINT rightUpperLeg
  {
    OFFSET -0.8487163290887698 -0.43932186100277326 0
    CHANNELS 3 Yrotation Xrotation Zrotation
    JOINT rightLowerLeg
    {
      OFFSET 0 -3.882816707004296 0
      CHANNELS 3 Yrotation Xrotation Zrotation
      JOINT rightFoot
      {
        OFFSET 0 -4.570431027442807 0.004629272230691511
        CHANNELS 3 Yrotation Xrotation Zrotation
        JOINT rightToes
        {
          OFFSET 0 -0.698875637876343 1.214565366696912
          CHANNELS 3 Yrotation Xrotation Zrotation
          End Site
          {
            OFFSET 0 -0.698875637876343 1.214565366696912
          }
        }
      }
    }
  }
}
MOTION
Frames: 4
Frame Time: 0.03333333333333333
0.48203107714653015 -4.773320358323414 1.9839321374893188 3.145366096846728 1.1316804330725831 0.007065556532834954 -0.03132004368618313 0.06330814250452896 -0.9998686545452852 0.2661315443500062 -0.7123429953804513 -1.703079583357539 0 0 0 -0.887065756086048 -0.10982463992760166 4.421065020208079 0.6439413073198668 -12.207719217777155 -1.2914475183111012 0 0 0 0 0 0 1.374059779312527 0.6168130008794428 -4.563217674775309 -55.21688112983576 14.731415089011191 -65.66414518505127 -17.180757162329677 -2.193701556970396 0.5549060083716625 2.5277158830570685 -16.20417497196987 15.071013473521997 1.185013167099361 0.11495116033114197 -11.081619579041435 1.2801145499739288 0.1343325617449205 -11.983551740441099 0.6435718269009426 0.033673788371969014 -5.992150772153061 5.173290900532357 0.8785830941454376 -10.589042407635114 -2.7815261580920243 0.128342603505063 -12.441220214370531 0.6435704396060694 0.03367551592987973 -5.992141856509019 1.183322560519884 0.11460871637057389 -11.065622313094826 1.2817903694025323 0.1347090636204021 -11.999549504830023 0.6435696926011374 0.03367554928041855 -5.992142281063503 1.185013167099361 0.11495116033114197 -11.081619579041435 1.2801146566692905 0.1343325617449205 -11.983551740441099 0.6435718269009426 0.033673788371969014 -5.992150772153061 23.699738252487542 -18.35421093824074 6.333867256916953 7.976358956344987 3.9081173996049245 1.190566056633043 1.6077410305030992 -0.5796767848695111 2.5018861791549343 7.404457245993211 3.2857714592177616 9.900526699374792 35.976450207817344 21.998595813017776 59.42222963362849 37.92028893314308 -4.468537936673231 -2.043225110696526 -9.100208592689276 -23.321131753578076 -13.99959991432561 -0.9051590352141468 0.06607902661937301 8.350160940114755 -1.1170070136932073 0.10090574514310095 10.323894540978989 -0.5607793778565239 0.025286938608504544 5.162188580793767 -0.9051557272518469 0.06606822770958864 8.350165163731655 -1.1170162967314803 0.10091419618128451 10.32389034121559 -0.5607760162835197 0.025286923600763206 5.1621915568815915 -0.9051590352141468 0.06607905996992824 8.350160940114755 -1.117007120394797 0.10090575181321791 10.323894540978989 -0.5607793778565239 0.025286938608504544 5.162188580793767 -0.9051590352141468 0.06607901327915092 8.350160940114755 -1.117007120394797 0.10090575181321791 10.323894540978989 -0.5607793778565239 0.025286938608504544 5.162188580793767 -8.042817785758338 10.661066510199111 -21.734789697700492 -8.66435652350634 4.59289834704193 -0.8120885090615254 0.11026937852899633 -1.2742431043752094 -2.0989238313952483 -4.289329756465875 -11.310965068506388 11.184953980019044 160.2058212994661 61.14197810074964 158.14188097283431 3.373352454328385 -14.998921568095268 -7.309073299978248 0.5817443028368425 -23.31533220953324 -6.910735082020644 -1.7099998164031889 -6.666771892542341 -11.309412577320568 -158.79653005095034 63.448398279631085 -156.0566412795899 -2.158726348281991 -18.24390555892173 5.095626527358789 -0.013207600108956045 0.5050105557053072 -0.7002021769536894
0.4819944500923157 -4.774692695664722 1.9803999662399292 3.1823977725589234 1.203768098572971 -0.052231987185357855 -0.10857838191076569 0.10498929772479018 -0.943112297672078 0.20550130107947115 -0.6310453976828959 -1.6513324517323615 0 0 0 -0.868841466973031 -0.12336250313050834 4.412649465716636 0.7120018146399868 -12.175738727360502 -1.2345316353501008 0 0 0 0 0 0 1.3366268676413784 0.6209761906921163 -4.5350353597337705 -55.30007623211328 14.396252198006573 -65.62487539307067 -16.36461437465026 -2.094028623464528 0.5138434344952961 2.6692346559662576 -17.288058886021773 14.45720718806108 1.1987268046234794 0.11764027271198137 -11.211528611198743 1.2899046180991085 0.13642984922146872 -12.076647352365859 0.6485534547008545 0.034199699690101004 -6.038689219061743 5.185273553437308 0.8903124066580745 -10.718451404849063 -2.771740729561968 0.13051420899556107 -12.534300203875992 0.6485498263946226 0.03420226434654998 -6.038690917134266 1.1970389722911137 0.11730675334018845 -11.195525584679741 1.2915931646806669 0.13679681284991754 -12.092634238075547 0.6485571363645254 0.03420318482142635 -6.038684124844107 1.1987268046234794 0.1176402860522227 -11.211528611198743 1.2899045114041447 0.13642984922146872 -12.076647352365859 0.6485534547008545 0.034199699690101004 -6.038689219061743 23.8829870757864 -18.470284618813086 6.329583995519654 7.9763504815005595 3.9081319475864373 1.1905976061040426 1.6077410305030992 -0.5796767848695111 2.5018861791549343 7.463133756239158 3.3120953010503307 9.907519877100395 36.04530780347552 21.657387253702854 59.71848709232313 36.580587158158245 -4.339487634522696 -1.923159569403207 -9.64823373670315 -23.86388415441155 -12.952227858164932 -0.9225867108062906 0.06867839564383402 8.512267724691446 -1.1250175640572402 0.10236163160368272 10.398585868181422 -0.564840452501594 0.025646147230381236 5.199530010208859 -0.9225933266990117 0.06866361467696697 8.512270257799248 -1.1250127624985151 0.10237741977123159 10.398583572268361 -0.5648379446631151 0.025645712005881248 5.199531285599753 -0.9225867108062906 0.06867842899439104 8.512267724691446 -1.1250175640572402 0.10236163160368272 10.398585868181422 -0.564840452501594 0.025646148897908057 5.199530010208859 -0.9225867108062906 0.06867838230361122 8.512267724691446 -1.1250175640572402 0.10236163160368272 10.398585868181422 -0.564840452501594 0.025646148897908057 5.199530010208859 -8.152318172062795 10.868478214153475 -21.791113967693345 -8.66435652350634 4.59289834704193 -0.8120885090615254 0.11026937852899633 -1.2742431043752094 -2.0989238313952483 -4.295833283211396 -11.426435134226743 11.298739878198209 160.25822180522516 61.083260670766066 158.19953972191422 3.4085268474919066 -15.095235727129465 -7.212085664485166 0.5827286320254323 -23.318861366503448 -6.91441218737316 -1.6849099129591256 -6.790740402215268 -11.243364140565916 -158.8467176360972 63.357778799473955 -156.10112178612755 -2.080301352235306 -18.164892121557834 5.380224783783653 -0.012159234036897983 0.4267046449021711 -0.658715944797603
0.48321691155433655 -4.776251953172046 1.9774161577224731 3.2024554701442067 1.2756055307846497 -0.10212877867991278 -0.19454427632212082 0.13902540864647633 -0.8642728648175744 0.12027550743346987 -0.5579540585131453 -1.558498229972191 0 0 0 -0.8304665423590945 -0.1361727559047706 4.332125708817931 0.8271945641852608 -12.088267758879459 -1.2429409280004045 0 0 0 0 0 0 1.4146455197913508 0.6172268382901531 -4.713212091044177 -55.44980380343582 14.301399013602111 -65.46574121053312 -15.911015198036687 -2.0383981271614537 0.49163217524997416 2.9956626692047204 -18.048939708463642 13.868081762665348 1.2091912889457992 0.11973805242276653 -11.31084752901186 1.2973902038249636 0.13803580205664445 -12.14784774060776 0.6523698149495523 0.034590788121513234 -6.074323601221152 5.194405599808084 0.8992852211430191 -10.817401475766063 -2.7642571128276647 0.13218334086002806 -12.605500324173535 0.6523686410866377 0.03460341463563041 -6.07431893182977 1.2075064789627168 0.11939093931892372 -11.294840178314521 1.29909134044101 0.13839613560444794 -12.16382736038484 0.6523668269348596 0.034608107056487376 -6.0743231767310295 1.2091912889457992 0.11973803908252419 -11.31084752901186 1.2973902038249636 0.13803578871639252 -12.14784774060776 0.6523698149495523 0.034590788121513234 -6.074323601221152 24.022911793748797 -18.559153457283422 6.3263496064292335 7.976355566407258 3.908124673595649 1.1905569661073667 1.6077410305030992 -0.5796767848695111 2.5018861791549343 7.603714322897559 3.3363345927395844 9.919960878647684 36.19125163903895 21.378697465047026 59.97434833216455 35.34212835655741 -4.21771516042946 -1.8148585450359136 -10.1323144337406 -24.273903264798555 -11.947875439960548 -0.9359253094484257 0.0706643012937631 8.636192400281221 -1.131136417104784 0.10350100771343558 10.455643473472682 -0.5679355882663147 0.025920785562858064 5.228095057236827 -0.9359318186088756 0.07065461629159857 8.636192400281221 -1.1311319356592047 0.10351208010847807 10.455645152670073 -0.5679354815498405 0.025920778892750768 5.2280954823477845 -0.9359252027408772 0.07066432797420984 8.636192400281221 -1.131136417104784 0.1035010010433181 10.455643473472682 -0.5679354815498405 0.025920782227804414 5.228095057236827 -0.9359253094484257 0.07066428795353973 8.636192400281221 -1.131136417104784 0.1035010010433181 10.455643473472682 -0.5679355349080777 0.02592078389533124 5.228095057236827 -8.236039289125781 11.026797522633593 -21.834076074356993 -8.66435652350634 4.59289834704193 -0.8120885090615254 0.11026937852899633 -1.2742431043752094 -2.0989238313952483 -4.27390318573404 -11.530741114842947 11.37353450161003 160.30731868239505 61.01832199761769 158.26007608117092 3.4435591082416486 -15.18383853403607 -7.1981216518058115 0.5712732011882398 -23.24378376865069 -6.841990516610927 -1.6601672879865497 -6.885652128334285 -11.22301647466846 -158.88771552369508 63.28728889594628 -156.1192035386823 -2.066273840073156 -18.189273410094327 5.649064066974747 -0.01078154831758249 0.33593978989383394 -0.6004562636351961
0.4852660596370697 -4.778511207627613 1.9753425121307373 3.1512110269246394 1.4293268038359521 -0.14419334261459688 -0.32136985880361063 0.12208207984779962 -0.7286372320366257 -0.045666907268863216 -0.5678238913673076 -1.3766566825687536 0 0 0 -0.7234151306293343 -0.27670014967823275 4.11573702652677 1.1866393100165042 -11.942726871861442 -1.3621797671781386 0 0 0 0 0 0 1.5628429923799172 0.6135937151325269 -5.1105255585423786 -55.54214627389005 14.512350271816311 -65.15479695866215 -15.942174895612421 -2.0422239644757685 0.49316319321689395 3.8192586558290462 -19.065692213248028 12.967530753611731 1.2185762315798505 0.1216101420574518 -11.399606564471418 1.3041004031294814 0.13949265099471125 -12.21159357839057 0.6557652675763349 0.0349833306380494 -6.106200123455661 5.202576302548915 0.9073406161102904 -10.905810314379414 -2.75758390945065 0.1336813574553182 -12.669291401129422 0.6557682555889401 0.03496664202819854 -6.106196303271153 1.2168921680880962 0.12127372780472452 -11.383594508568875 1.3057853999470472 0.13985373161889922 -12.227580028607619 0.6557702298115524 0.034968419611941505 -6.106185328378705 1.2185762315798505 0.12161012871720851 -11.399606564471418 1.3041004031294814 0.13949265099471125 -12.21159357839057 0.6557652675763349 0.03498332730299547 -6.106200123455661 24.148027779053095 -18.638757094513547 6.323396873602339 7.976359431343407 3.9081203947775687 1.1905942907359375 1.6077410305030992 -0.5796767848695111 2.5018861791549343 7.86207660161351 3.361004242610358 9.940788584628853 36.67100868974265 21.04972318373619 60.45525549508983 33.53594318966154 -4.035892745940145 -1.6616742669776667 -10.723190663178379 -24.51433879902271 -10.532185246984907 -0.947836681013253 0.0724957005550974 8.746987674162506 -1.1365811835411366 0.10450522059862202 10.50673747356997 -0.5706935194827452 0.026162025001114596 5.253627632300083 -0.9478319858969709 0.07249063127001522 8.746993581074161 -1.1365891861076578 0.10449959768939593 10.506731597348342 -0.5706900511989941 0.02617198180379705 5.253628907580827 -0.947836681013253 0.07249573390565715 8.746987674162506 -1.1365811835411366 0.10450522059862202 10.50673747356997 -0.5706935728409568 0.026162025001114596 5.253627632300083 -0.947836681013253 0.07249568054476153 8.746986310979327 -1.1365811835411366 0.10450522059862202 10.50673747356997 -0.5706935194827452 0.026162025001114596 5.253627632300083 -8.310935060363471 11.168283022012023 -21.87246983580757 -8.66435652350634 4.59289834704193 -0.8120885090615254 0.11026937852899633 -1.2742431043752094 -2.0989238313952483 -4.2660113300154805 -11.698034747256127 11.4032208869437 160.3510057388844 60.94328324763719 158.30146451807124 3.3981704181316945 -15.234215130956935 -7.2951086746080716 0.5545607500799133 -23.137966498353734 -6.742252952325832 -1.5817822571776752 -7.108137295293184 -11.17741025925233 -158.9458570865991 63.214447284527665 -156.1830395892215 -2.2998007296800402 -18.272050752356062 5.776400083047652 -0.00954880959160932 0.20975226955288861 -0.5444204525617504
